# AST/ASF file generated using VICON BodyLanguage
# -----------------------------------------------
:version 1.10
:name VICON
:units
  mass 1.0
  length 0.45
  angle deg
:documentation
   .ast/.asf automatically generated from VICON data using
   VICON BodyBuilder and BodyLanguage model FoxedUp or BRILLIANT.MOD
:root
   order TX TY TZ RX RY RZ
   axis XYZ
   position 0 0 0  
   orientation 0 0 0 
:bonedata
  begin
     id 1 
     name lhipjoint
     direction 0.543289 -0.788407 0.288535 
     length 2.57127 
     axis 0 0 0  XYZ
  end
  begin
     id 2 
     name lfemur
     direction 0.34202 -0.939693 0  
     length 8.47298  
     axis 0 0 20  XYZ
    dof rx ry rz
    limits (-160.0 20.0)
           (-70.0 70.0)
           (-60.0 70.0)
  end
  begin
     id 3 
     name ltibia
     direction 0.34202 -0.939693 0   
     length 8.13367   
     axis 0 0 20   XYZ
    dof rx
    limits (-10.0 170.0)
  end
  begin
     id 4 
     name lfoot
     direction 0.114037 -0.313314 0.942778   
     length 2.67113   
     axis -90 7.62852e-016 20   XYZ
    dof rx rz
    limits (-45.0 90.0)
           (-70.0 20.0)
  end
  begin
     id 5 
     name ltoes
     direction 1.536e-011 -4.21847e-011 1   
     length 1.32217   
     axis -90 7.62852e-016 20   XYZ
    dof rx
    limits (-90.0 20.0)
  end
  begin
     id 6 
     name rhipjoint
     direction -0.571293 -0.770752 0.282074   
     length 2.63017  
     axis 0 0 0  XYZ 
  end
  begin
     id 7 
     name rfemur
     direction -0.34202 -0.939693 0   
     length 8.60885   
     axis 0 0 -20   XYZ
    dof rx ry rz
    limits (-160.0 20.0)
           (-70.0 70.0)
           (-70.0 60.0)
  end
  begin
     id 8 
     name rtibia
     direction -0.34202 -0.939693 0   
     length 8.07673   
     axis 0 0 -20   XYZ
    dof rx
    limits (-10.0 170.0)
 end
 begin
     id 9 
     name rfoot
     direction -0.121336 -0.333368 0.934956   
     length 2.81602  
     axis -90 -7.62852e-016 -20   XYZ
    dof rx rz
    limits (-45.0 90.0)
           (-20.0 70.0)
  end
  begin
     id 10 
     name rtoes
     direction -1.53491e-011 -4.21808e-011 1   
     length 1.38905   
     axis -90 -7.62852e-016 -20   XYZ
    dof rx
    limits (-90.0 20.0)
  end
  begin
     id 11 
     name lowerback
     direction 0.0136776 0.999869 -0.00861835   
     length 2.14087   
     axis 0 0 0   XYZ
    dof rx ry rz
    limits (-20.0 45.0)
           (-30.0 30.0)
           (-30.0 30.0)
  end
  begin
     id 12 
     name upperback
     direction -0.00789158 0.999804 0.0181308   
     length 2.14151   
     axis 0 0 0   XYZ
    dof rx ry rz
    limits (-20.0 45.0)
           (-30.0 30.0)
           (-30.0 30.0)
  end
  begin
     id 13 
     name thorax
     direction -0.0135231 0.999666 0.0220247   
     length 2.13644   
     axis 0 0 0   XYZ
    dof rx ry rz
    limits (-20.0 45.0)
           (-30.0 30.0)
           (-30.0 30.0)
  end
  begin
     id 14 
     name lowerneck
     direction -0.0392259 0.997317 0.0618018   
     length 1.65045   
     axis 0 0 0   XYZ
    dof rx ry rz
    limits (-20.0 45.0)
           (-30.0 30.0)
           (-30.0 30.0)
  end
  begin
     id 15 
     name upperneck
     direction 0.0765547 0.994276 -0.0745319   
     length 1.66045   
     axis 0 0 0   XYZ
    dof rx ry rz
    limits (-20.0 45.0)
           (-30.0 30.0)
           (-30.0 30.0)
  end
  begin
     id 16
     name head
     direction 0.0241564 0.999031 -0.036785  
     length 1.66594  
     axis 0 0 0   XYZ
    dof rx ry rz
    limits (-20.0 45.0)
           (-30.0 30.0)
           (-30.0 30.0)
  end
  begin
     id 17 
     name lclavicle
     direction 0.967398 0.249018 0.0461573  
     length 3.75176  
     axis 0 0 0   XYZ
    dof ry rz
    limits (-20.0 10.0)
           (0.0 20.0)
  end
  begin
     id 18 
     name lhumerus
     direction 1 -4.48963e-011 -3.05005e-027   
     length 5.93342   
     axis 180 -30 -90   XYZ
    dof rx ry rz
    limits (-60.0 90.0)
           (-90.0 90.0)
           (-90.0 90.0)
  end
  begin
     id 19
     name lradius
     direction 1 -4.48957e-011 1.07006e-026   
     length 3.94763   
     axis 180 -30 -90   XYZ
    dof rx
    limits (-10.0 170.0)
  end
  begin
     id 20
     name lwrist
     direction 1 -4.48978e-011 1.92422e-026   
     length 1.97382   
     axis -1.18182e-014 90 90   XYZ
    dof ry
    limits (-180.0 0.0)
 end
  begin
     id 21 
     name lhand
     direction 1 -4.48931e-011 3.84844e-026   
     length 0.560187   
     axis -2.45563e-014 90 90   XYZ
    dof rx rz
    limits (-90.0 90.0)
           (-45.0 45.0)
  end
  begin
     id 22 
     name lfingers
     direction 1 -4.48952e-011 7.69687e-026   
     length 0.451637   
     axis -4.91126e-014 90 90   XYZ
    dof rx
    limits (0.0 90.0)
  end
  begin
     id 23
     name lthumb
     direction 0.707107 -6.34901e-011 0.707107   
     length 0.648463   
     axis -90 45 2.85299e-015   XYZ
    dof rx rz
    limits (-45.0 45.0)
           (-45.0 45.0)
  end
  begin
     id 24 
     name rclavicle
     direction -0.965946 0.258716 0.00371831   
     length 3.63667  
     axis 0 0 0   XYZ 
    dof ry rz
    limits (-10.0 20.0)
           (-20.0 0.0)
  end
  begin
     id 25 
     name rhumerus
     direction -1 -4.48966e-011 -1.78361e-028  
     length 6.28647   
     axis 180 30 90   XYZ
    dof rx ry rz
    limits (-90.0 60.0)
           (-90.0 90.0)
           (-90.0 90.0)
  end
  begin
     id 26 
     name rradius
     direction -1 -4.48961e-011 1.05248e-026   
     length 3.81645   
     axis 180 30 90   XYZ
    dof rx
    limits (-10.0 170.0)
  end
  begin
     id 27 
     name rwrist
     direction -1 -4.48979e-011 1.92422e-026   
     length 1.90822   
     axis -1.18182e-014 -90 -90   XYZ
    dof ry
    limits (-180.0 0.0)
  end
  begin
     id 28
     name rhand
     direction -1 -4.48937e-011 3.84844e-026   
     length 0.646185   
     axis -2.45563e-014 -90 -90   XYZ
    dof rx rz
    limits (-90.0 90.0)
           (-45.0 45.0)
  end
  begin
     id 29
     name rfingers
     direction -1 -4.48953e-011 7.69687e-026   
     length 0.520971   
     axis -4.91126e-014 -90 -90   XYZ
    dof rx
    limits (0.0 90.0)
  end
  begin
     id 30
     name rthumb
     direction -0.707107 -6.3494e-011 0.707107   
     length 0.748013   
     axis -90 -45 -2.85299e-015   XYZ
    dof rx rz
    limits (-45.0 45.0)
           (-45.0 45.0)
  end
:hierarchy
  begin
    root lhipjoint rhipjoint lowerback
    lhipjoint lfemur
    lfemur ltibia
    ltibia lfoot
    lfoot ltoes
    rhipjoint rfemur
    rfemur rtibia
    rtibia rfoot
    rfoot rtoes
    lowerback upperback
    upperback thorax
    thorax lowerneck lclavicle rclavicle
    lowerneck upperneck
    upperneck head
    lclavicle lhumerus
    lhumerus lradius
    lradius lwrist
    lwrist lhand lthumb
    lhand lfingers
    rclavicle rhumerus
    rhumerus rradius
    rradius rwrist
    rwrist rhand rthumb
    rhand rfingers
  end

#!OML:ASF H:\HAZMAT1\Patient Classification 1\Patient 3\Session 1\dancer.ASF
:FULLY-SPECIFIED
:DEGREES
30
upperback -2.610480 -10.167100 1.194470
rfoot -17.632799 -12.537300
lradius 29.107800
lthumb 13.473500 49.287899
rradius 29.413500
lwrist -8.880520
rhand -15.506700 -18.356199
rhumerus -63.337601 -16.106501 -62.344299
lowerneck -4.740190 0.561448 0.810719
lhand -12.605500 19.743700
ltibia 32.330299
head 1.720790 0.349064 -0.928263
rwrist 12.843800
lfingers 7.125020
rtoes -6.885170
lowerback -3.884070 -7.483890 6.686780
rfingers 7.125020
lclavicle 0.000000 0.000000
upperneck 2.883870 0.800364 -2.594780
rfemur -52.832500 4.313370 16.066799
thorax -1.486470 -5.181150 -2.608350
rclavicle 0.000000 0.000000
rtibia 72.769302
lfoot -26.543301 -4.175950
lhumerus -31.650900 -16.674900 93.935699
rthumb 10.676000 -48.064899
root 17.503700 17.788000 8.005720 11.531000 14.276800 -0.612711
ltoes -10.558700
lfemur 4.357620 -18.773500 -19.769699
31
upperback -2.406700 -13.643600 1.925240
rfoot -15.014400 8.181430
lradius 26.933701
lthumb 17.307199 48.063499
rradius 28.082100
lwrist -10.537400
rhand -18.323601 -19.111900
rhumerus -64.882301 -14.217300 -58.793201
lowerneck -4.679630 -0.902404 0.968651
lhand -8.625180 18.814100
ltibia 23.460600
head 0.533516 -0.644188 -0.929077
rwrist 11.614100
lfingers 7.125020
rtoes -6.949010
lowerback -2.852030 -10.176900 4.706600
rfingers 7.125020
lclavicle -0.000000 0.000000
upperneck -0.717912 -1.235490 -2.432560
rfemur -54.117401 21.678600 -1.864960
thorax -1.532690 -6.875820 -0.684264
rclavicle -0.000000 0.000000
rtibia 51.280899
lfoot -22.599600 -7.063330
lhumerus -31.284901 -28.262100 98.977997
rthumb 7.957970 -48.942101
root 17.417999 17.510201 9.713920 11.036300 27.313801 -1.194260
ltoes -11.360000
lfemur 11.761100 -23.911100 -13.876600
32
upperback -2.513410 -13.681900 1.627040
rfoot -21.967199 -6.031170
lradius 26.563400
lthumb 17.093599 43.556198
rradius 20.488600
lwrist -13.324900
rhand -14.736400 -16.623400
rhumerus -59.085701 -13.728100 -54.886700
lowerneck -4.532960 1.145130 2.401210
lhand -8.847070 14.288200
ltibia 29.871799
head 1.443090 0.700043 -3.419340
rwrist 22.954201
lfingers 7.125020
rtoes -5.933890
lowerback -1.237210 -10.272500 3.072370
rfingers 7.125020
lclavicle 0.000000 0.000000
upperneck 1.654210 1.685330 -9.356940
rfemur -44.733700 12.222800 7.413870
thorax -2.225640 -6.879000 0.150587
rclavicle 0.000000 0.000000
rtibia 53.118401
lfoot -8.826960 -3.060130
lhumerus -20.860300 -31.858500 87.589302
rthumb 11.419000 -46.292400
root 16.951099 17.941500 11.468500 12.986200 51.007999 -1.641740
ltoes -13.556000
lfemur -1.943790 -20.027500 1.689360
33
upperback -1.590700 -10.608500 -0.395006
rfoot -25.761900 -12.850000
lradius 23.057699
lthumb 15.913000 41.959000
rradius 17.245100
lwrist -17.983601
rhand -18.797701 -25.083599
rhumerus -45.444901 -9.406090 -37.686401
lowerneck -2.793750 9.766080 6.868110
lhand -10.073400 12.592800
ltibia 40.749100
head 5.127820 6.884960 -5.227710
rwrist 26.548100
lfingers 7.125020
rtoes -3.337510
lowerback -0.533142 -7.959410 5.012130
rfingers 7.125020
lclavicle 0.000000 0.000000
upperneck 9.750140 14.790200 -16.320101
rfemur -34.737801 -6.093280 14.378600
thorax -2.324620 -5.388760 -2.904460
rclavicle 0.000000 0.000000
rtibia 50.683201
lfoot -6.076730 12.059900
lhumerus -13.219200 -27.831900 66.770599
rthumb 7.500380 -54.930599
root 16.713100 18.200100 12.190800 11.264800 78.734901 -2.650030
ltoes -12.970200
lfemur -20.018400 -3.301870 6.389890
34
upperback -1.505300 -7.004980 0.019437
rfoot -29.122400 -22.135000
lradius 18.659100
lthumb 12.456100 43.096600
rradius 23.445499
lwrist -24.578100
rhand -20.350599 -24.374800
rhumerus -33.604801 -1.314130 -35.482899
lowerneck -3.207380 10.545500 7.332400
lhand -13.660800 13.487800
ltibia 53.862701
head 5.832140 7.491860 -3.898710
rwrist 14.977500
lfingers 7.125020
rtoes -10.373000
lowerback -1.043750 -5.247800 7.347030
rfingers 7.125020
lclavicle -0.000000 0.000000
upperneck 12.405500 15.758500 -12.299300
rfemur -24.694401 -22.619400 22.488899
thorax -1.853850 -3.599840 -3.965060
rclavicle -0.000000 0.000000
rtibia 47.747200
lfoot -19.748400 29.573601
lhumerus -24.406401 -12.443900 55.804401
rthumb 6.001320 -54.269798
root 17.101999 18.124399 12.088500 -153.046005 67.837303 -166.425995
ltoes 18.276100
lfemur -50.448601 28.515499 -13.804800
35
upperback -1.964230 -2.605810 -0.878476
rfoot -6.201450 -25.708300
lradius 16.245899
lthumb 9.101720 46.474701
rradius 27.091801
lwrist -26.707800
rhand -20.555500 -23.324301
rhumerus -37.100899 -0.065727 -46.976700
lowerneck -3.389160 8.795950 7.690190
lhand -17.138500 16.691099
ltibia 52.097698
head 6.168370 6.567930 -2.015050
rwrist 15.278700
lfingers 7.125020
rtoes -12.319800
lowerback -1.480310 -1.950250 6.199040
rfingers 7.125020
lclavicle -0.000000 0.000000
upperneck 15.740900 12.859600 -5.351400
rfemur -7.619070 -25.377701 17.155701
thorax -1.519240 -1.385800 -4.379060
rclavicle -0.000000 0.000000
rtibia 54.508900
lfoot -23.538799 23.826300
lhumerus -36.543800 -3.010000 56.715401
rthumb 5.803530 -53.224800
root 17.991400 18.136200 10.177500 -167.108994 24.242300 -175.052994
ltoes 23.572100
lfemur -46.598999 11.737700 -25.468700
36
upperback -2.630330 0.032872 -0.247187
rfoot -18.171499 -31.354601
lradius 15.928900
lthumb 10.217500 46.652500
rradius 30.408701
lwrist -24.394699
rhand -18.292500 -21.105900
rhumerus -40.360001 -3.151200 -68.756203
lowerneck -3.665370 5.961560 4.011030
lhand -15.982000 16.920601
ltibia 53.406799
head 4.977210 3.440750 1.489680
rwrist 12.784000
lfingers 7.125020
rtoes 6.449240
lowerback -1.262190 0.082386 7.897720
rfingers 7.125020
lclavicle 0.000000 -0.000000
upperneck 14.710500 6.330590 5.895260
rfemur -12.896300 -11.753600 19.233500
thorax -2.013640 -0.174530 -4.686600
rclavicle 0.000000 -0.000000
rtibia 53.629902
lfoot -22.825399 6.279900
lhumerus -41.696701 0.170369 59.924599
rthumb 7.988000 -50.934898
root 18.926500 18.200899 8.057500 -174.563004 -28.543200 -172.072006
ltoes 17.454800
lfemur -35.860199 -7.630700 -21.195999
37
upperback -3.399810 -0.663733 2.840340
rfoot -10.573700 -33.560101
lradius 18.086500
lthumb 13.779600 44.694000
rradius 34.119301
lwrist -19.679300
rhand -17.858900 -19.000000
rhumerus -32.004398 6.327600 -72.626099
lowerneck -3.322450 -0.359721 -0.599092
lhand -12.287900 15.170300
ltibia 53.824200
head 1.814660 -0.662586 5.036500
rwrist 6.296710
lfingers 7.125020
rtoes 12.880100
lowerback 0.058213 -0.590691 8.994790
rfingers 7.125020
lclavicle -0.000000 -0.000000
upperneck 3.766920 -1.662210 16.519400
rfemur -17.717199 12.175900 6.060590
thorax -3.640850 -0.615639 -2.055130
rclavicle -0.000000 -0.000000
rtibia 39.279301
lfoot -28.439400 6.171250
lhumerus -42.452400 -0.981678 66.587196
rthumb 8.406530 -48.812698
root 19.724800 18.192600 6.209270 -204.227005 -75.498299 -141.576996
ltoes 18.223700
lfemur -35.484200 -1.874170 -20.795300
